<?xml version="1.0" encoding="UTF-8" standalone="no"?>
<!-- Created with Inkscape (http://www.inkscape.org/) -->

<svg
   xmlns:dc="http://purl.org/dc/elements/1.1/"
   xmlns:cc="http://creativecommons.org/ns#"
   xmlns:rdf="http://www.w3.org/1999/02/22-rdf-syntax-ns#"
   xmlns:svg="http://www.w3.org/2000/svg"
   xmlns="http://www.w3.org/2000/svg"
   xmlns:sodipodi="http://sodipodi.sourceforge.net/DTD/sodipodi-0.dtd"
   xmlns:inkscape="http://www.inkscape.org/namespaces/inkscape"
   width="400"
   height="400"
   viewBox="0 0 400 400.00001"
   id="svg2"
   version="1.1"
   inkscape:version="0.91 r13725"
   sodipodi:docname="gear.svg">
  <sodipodi:namedview
     id="base"
     pagecolor="#ffffff"
     bordercolor="#666666"
     borderopacity="1.0"
     inkscape:pageopacity="0.0"
     inkscape:pageshadow="2"
     inkscape:zoom="1.979899"
     inkscape:cx="221.76499"
     inkscape:cy="197.84313"
     inkscape:document-units="px"
     inkscape:current-layer="svg2"
     showgrid="false"
     units="px"
     inkscape:window-width="1920"
     inkscape:window-height="1017"
     inkscape:window-x="-8"
     inkscape:window-y="-8"
     inkscape:window-maximized="1" />
  <defs
     id="defs4" />
  <metadata
     id="metadata7">
    <rdf:RDF>
      <cc:Work
         rdf:about="">
        <dc:format>image/svg+xml</dc:format>
        <dc:type
           rdf:resource="http://purl.org/dc/dcmitype/StillImage" />
        <dc:title></dc:title>
      </cc:Work>
    </rdf:RDF>
  </metadata>
  <g
     inkscape:label="Layer 1"
     inkscape:groupmode="layer"
     id="layer1"
     transform="translate(0,-652.36216)" />
  <g
     id="g4214"
     transform="translate(204.5924,205.6924)"
     inkscape:label="Gear24"
     style="stroke:#000000;stroke-opacity:1;stroke-width:0;stroke-miterlimit:4;stroke-dasharray:none">
    <path
       id="path4216"
       d="m 69.80222,-5.62101 1.75337,-0.14119 4.67522,0.76577 6.49842,2.71905 0,4.55476 -6.49842,2.71905 -4.67522,0.76577 -1.75337,-0.14119 -0.92363,7.01566 1.73017,0.31742 4.31772,1.94971 5.57325,4.30832 -1.17886,4.39956 -6.98074,0.94449 -4.7141,-0.47036 -1.65709,-0.59019 -2.70794,6.53755 1.58906,0.75441 3.66597,3.00079 4.26828,5.60398 -2.27739,3.94453 -6.98732,-0.89444 -4.43174,-1.67443 -1.44787,-0.99897 -4.30772,5.61393 1.33967,1.13998 2.76439,3.84736 2.67242,6.51774 -3.2207,3.2207 -6.51774,-2.67242 -3.84736,-2.76439 -1.13998,-1.33967 -5.61393,4.30772 0.99897,1.44787 1.67443,4.43174 0.89444,6.98732 -3.94453,2.27739 -5.60398,-4.26828 -3.00079,-3.66597 -0.75441,-1.58906 -6.53755,2.70794 0.59019,1.65709 0.47036,4.7141 -0.94449,6.98074 -4.39956,1.17886 -4.30832,-5.57325 -1.94971,-4.31772 -0.31742,-1.73017 -7.01566,0.92363 0.14119,1.75337 -0.76577,4.67522 -2.71905,6.49842 -4.55476,0 -2.71905,-6.49842 -0.76577,-4.67522 0.14119,-1.75337 -7.01566,-0.92363 -0.31742,1.73017 -1.94971,4.31772 -4.30832,5.57325 -4.39956,-1.17886 -0.94449,-6.98074 0.47036,-4.7141 0.59019,-1.65709 -6.53755,-2.70794 -0.75441,1.58906 -3.00079,3.66597 -5.60398,4.26828 -3.94453,-2.27739 0.89444,-6.98732 1.67443,-4.43174 0.99897,-1.44787 -5.61393,-4.30772 -1.13998,1.33967 -3.84736,2.76439 -6.51774,2.67242 -3.2207,-3.2207 2.67242,-6.51774 2.76439,-3.84736 1.33967,-1.13998 -4.30772,-5.61393 -1.44787,0.99897 -4.43174,1.67443 -6.98732,0.89444 -2.27739,-3.94453 4.26828,-5.60398 3.66597,-3.00079 1.58906,-0.75441 -2.70794,-6.53755 -1.65709,0.59019 -4.7141,0.47036 -6.98074,-0.94449 -1.17886,-4.39956 5.57325,-4.30832 4.31772,-1.94971 1.73017,-0.31742 -0.92363,-7.01566 -1.75337,0.14119 -4.67522,-0.76577 -6.49842,-2.71905 0,-4.55476 6.49842,-2.71905 4.67522,-0.76577 1.75337,0.14119 0.92363,-7.01566 -1.73017,-0.31742 -4.31772,-1.94971 -5.57325,-4.30832 1.17886,-4.39956 6.98074,-0.94449 4.7141,0.47036 1.65709,0.59019 2.70794,-6.53755 -1.58906,-0.75441 -3.66597,-3.00079 -4.26828,-5.60398 2.27739,-3.94453 6.98732,0.89444 4.43174,1.67443 1.44787,0.99897 4.30772,-5.61393 -1.33967,-1.13998 -2.76439,-3.84736 -2.67242,-6.51774 3.2207,-3.2207 6.51774,2.67242 3.84736,2.76439 1.13998,1.33967 5.61393,-4.30772 -0.99897,-1.44787 -1.67443,-4.43174 -0.89444,-6.98732 3.94453,-2.27739 5.60398,4.26828 3.00079,3.66597 0.75441,1.58906 6.53755,-2.70794 -0.59019,-1.65709 -0.47036,-4.7141 0.94449,-6.98074 4.39956,-1.17886 4.30832,5.57325 1.94971,4.31772 0.31742,1.73017 7.01566,-0.92363 -0.14119,-1.75337 0.76577,-4.67522 2.71905,-6.49842 4.55476,0 2.71905,6.49842 0.76577,4.67522 -0.14119,1.75337 7.01566,0.92363 0.31742,-1.73017 1.94971,-4.31772 4.30832,-5.57325 4.39956,1.17886 0.94449,6.98074 -0.47036,4.7141 -0.59019,1.65709 6.53755,2.70794 0.75441,-1.58906 3.00079,-3.66597 5.60398,-4.26828 3.94453,2.27739 -0.89444,6.98732 -1.67443,4.43174 -0.99897,1.44787 5.61393,4.30772 1.13998,-1.33967 3.84736,-2.76439 6.51774,-2.67242 3.2207,3.2207 -2.67242,6.51774 -2.76439,3.84736 -1.33967,1.13998 4.30772,5.61393 1.44787,-0.99897 4.43174,-1.67443 6.98732,-0.89444 2.27739,3.94453 -4.26828,5.60398 -3.66597,3.00079 -1.58906,0.75441 2.70794,6.53755 1.65709,-0.59019 4.7141,-0.47036 6.98074,0.94449 1.17886,4.39956 -5.57325,4.30832 -4.31772,1.94971 -1.73017,0.31742 z"
       style="fill:none;stroke:#000000;stroke-width:0;stroke-opacity:1;stroke-miterlimit:4;stroke-dasharray:none"
       inkscape:connector-curvature="0" />
    <circle
       id="path4218"
       style="fill:none;stroke:#000000;stroke-width:0;stroke-opacity:1;stroke-miterlimit:4;stroke-dasharray:none"
       cx="0"
       cy="0"
       r="10" />
  </g>
  <g
     id="g4639"
     transform="translate(200,200)"
     inkscape:label="Gear20"
     style="stroke:#000000;stroke-width:10;stroke-miterlimit:4;stroke-dasharray:none;stroke-opacity:1">
    <path
       id="path4641"
       d="m 142.7775,-11.49461 13.45404,-1.08314 2.43278,0.0906 16.23314,4.70665 0,15.561 -16.23314,4.70665 -2.43278,0.0906 -13.45404,-1.08314 -3.436,21.69404 13.13026,3.1274 2.28572,0.83793 13.9842,9.49262 -4.80862,14.79938 -16.89307,-0.54002 -2.34171,-0.6656 -12.46084,-5.18767 -9.97166,19.57049 11.52121,7.0318 1.91491,1.50325 10.36638,13.34937 -9.14652,12.5891 -15.89939,-5.73383 -2.02142,-1.35666 -10.24789,-8.78437 -15.53122,15.53122 8.78437,10.24789 1.35666,2.02142 5.73383,15.89939 -12.5891,9.14652 -13.34937,-10.36638 -1.50325,-1.91491 -7.0318,-11.52121 -19.57049,9.97166 5.18767,12.46084 0.6656,2.34171 0.54002,16.89307 -14.79938,4.80862 -9.49262,-13.9842 -0.83793,-2.28572 -3.1274,-13.13026 -21.69404,3.436 1.08314,13.45404 -0.0906,2.43278 -4.70665,16.23314 -15.561,0 -4.70665,-16.23314 -0.0906,-2.43278 1.08314,-13.45404 -21.69404,-3.436 -3.1274,13.13026 -0.83793,2.28572 -9.49262,13.9842 -14.79938,-4.80862 0.54002,-16.89307 0.6656,-2.34171 5.18767,-12.46084 -19.57049,-9.97166 -7.0318,11.52121 -1.50325,1.91491 -13.34937,10.36638 -12.5891,-9.14652 5.73383,-15.89939 1.35666,-2.02142 8.78437,-10.24789 -15.53122,-15.53122 -10.24789,8.78437 -2.02142,1.35666 -15.89939,5.73383 -9.14652,-12.5891 10.36638,-13.34937 1.91491,-1.50325 11.52121,-7.0318 -9.97166,-19.57049 -12.46084,5.18767 -2.34171,0.6656 -16.89307,0.54002 -4.80862,-14.79938 13.9842,-9.49262 2.28572,-0.83793 13.13026,-3.1274 -3.436,-21.69404 -13.45404,1.08314 -2.43278,-0.0906 -16.23314,-4.70665 0,-15.561 16.23314,-4.70665 2.43278,-0.0906 13.45404,1.08314 3.436,-21.69404 -13.13026,-3.1274 -2.28572,-0.83793 -13.9842,-9.49262 4.80862,-14.79938 16.89307,0.54002 2.34171,0.6656 12.46084,5.18767 9.97166,-19.57049 -11.52121,-7.0318 -1.91491,-1.50325 -10.36638,-13.34937 9.14652,-12.5891 15.89939,5.73383 2.02142,1.35666 10.24789,8.78437 15.53122,-15.53122 -8.78437,-10.24789 -1.35666,-2.02142 -5.73383,-15.89939 12.5891,-9.14652 13.34937,10.36638 1.50325,1.91491 7.0318,11.52121 19.57049,-9.97166 -5.18767,-12.46084 -0.6656,-2.34171 -0.54002,-16.89307 14.79938,-4.80862 9.49262,13.9842 0.83793,2.28572 3.1274,13.13026 21.69404,-3.436 -1.08314,-13.45404 0.0906,-2.43278 4.70665,-16.23314 15.561,0 4.70665,16.23314 0.0906,2.43278 -1.08314,13.45404 21.69404,3.436 3.1274,-13.13026 0.83793,-2.28572 9.49262,-13.9842 14.79938,4.80862 -0.54002,16.89307 -0.6656,2.34171 -5.18767,12.46084 19.57049,9.97166 7.0318,-11.52121 1.50325,-1.91491 13.34937,-10.36638 12.5891,9.14652 -5.73383,15.89939 -1.35666,2.02142 -8.78437,10.24789 15.53122,15.53122 10.24789,-8.78437 2.02142,-1.35666 15.89939,-5.73383 9.14652,12.5891 -10.36638,13.34937 -1.91491,1.50325 -11.52121,7.0318 9.97166,19.57049 12.46084,-5.18767 2.34171,-0.6656 16.89307,-0.54002 4.80862,14.79938 -13.9842,9.49262 -2.28572,0.83793 -13.13026,3.1274 z"
       style="fill:none;stroke:#000000;stroke-width:10;stroke-miterlimit:4;stroke-dasharray:none;stroke-opacity:1"
       inkscape:connector-curvature="0" />
    <circle
       id="path4643"
       style="fill:none;stroke:#000000;stroke-width:10;stroke-miterlimit:4;stroke-dasharray:none;stroke-opacity:1"
       cx="0"
       cy="0"
       r="25" />
  </g>
</svg>
